<svg xmlns="http://www.w3.org/2000/svg" viewBox="0 0 48 48" width="100%" height="100%" fill="none">
  <defs>
    <linearGradient id="grad1" x1="0%" y1="0%" x2="100%" y2="100%">
      <stop offset="0%" stop-color="#00e5e5"/>
      <stop offset="100%" stop-color="#00a3a3"/>
    </linearGradient>
  </defs>
  <!-- Subtle circular base -->
  <circle cx="24" cy="24" r="22" fill="#00c2c2" fill-opacity="0.12"/>
  <!-- Pen Nib Design -->
  <path d="M24 7 L33 16 L29 20 L24 15 L24 22 L20 22 L20 15 L15 20 L11 16 Z" fill="url(#grad1)"/>
  <path d="M15 20 L24 29 L21 41 L10 30 Z" stroke="#00e5e5" stroke-width="2.5" stroke-linejoin="round" fill="#003333" fill-opacity="0.4"/>
  <circle cx="21" cy="29" r="2.5" fill="#00e5e5"/>
  <line x1="21" y1="29" x2="14" y2="36" stroke="#00e5e5" stroke-width="2" stroke-linecap="round"/>
  <!-- Dynamic Bezier line -->
  <path d="M8 12 C18 4 30 4 40 12" stroke="#2dd4bf" stroke-width="2" stroke-dasharray="3 3" stroke-linecap="round"/>
  <rect x="6" y="10" width="4" height="4" fill="#00e5e5" rx="1"/>
  <rect x="38" y="10" width="4" height="4" fill="#00e5e5" rx="1"/>
</svg>
